<?xml version="1.0" encoding="UTF-8"?>
<svg id="_レイヤー_2" data-name="レイヤー 2" xmlns="http://www.w3.org/2000/svg" viewBox="0 0 380 380">
  <defs>
    <style>
      .cls-1 {
        fill: #f6f1ea;
      }
    </style>
  </defs>
  <path class="cls-1" d="M115.78,108.52c-1.91.15-2.93,1.2-3.04,3.2l-1.41,25.21-13.32-.65,1.51-25.63-10.66.86-1.95,7.38-11.05-3.1,7.35-28.24,12.11,2.6-2.01,7.45c-.05.21-.1.49-.08.69.11,1.37.92,1.99,2.35,1.87l27.4-2.21.8,9.91-7.99.64Z"/>
  <path class="cls-1" d="M130.53,127.15l4.01-36.93,39.39,4.27-4.01,36.93-39.39-4.27ZM159.36,106.08l-14.72-1.6-1.47,14.18,11.79,1.28c.75.08,1.46-.12,2.07-.6.67-.48,1.02-1.13,1.11-1.95l1.23-11.31Z"/>
  <path class="cls-1" d="M217.2,115.33c-.82.07-1.48.41-2.04,1.01-.5.6-.78,1.31-.7,2.2l.73,17.28-13.37.59-.84-18.44-16.38,1.48-1-11.06,16.93-1.53-.19-4.39c0-.76-.33-1.35-.92-1.78-.59-.43-1.28-.5-2.02-.3l-6.76,2.12-3.15-9.76,30.48-10.05,3.29,10.58-8.46,3.1.36,9.33,15.91-1.44.89,9.9-12.77,1.15Z"/>
  <path class="cls-1" d="M267.38,133.18l-8.66-2.44,1.89-6.66-8.77-1.14-2.12,21.92-10.3-1.07,1.96-20.28c.11-1.3-.48-2.07-1.77-2.25l-6.65-.92,1.19-8.62,8.28,1.14.74-7.86,11.19,1.13-.6,6.35c-.18,1.29.42,1.99,1.71,2.17l16.5,2.27-4.59,16.25Z"/>
  <path class="cls-1" d="M303.45,146.28l-4.43-5.97c2.51-1.95,3.86-4.28,4.12-6.93.2-2.21-.64-4-2.51-5.45-1.55-1.17-3.51-1.84-5.87-2.06-2.26-.21-4.28.11-6.01.9-2.1,1-3.22,2.56-3.37,4.68-.1.88.11,1.65.64,2.26.47.65,1.18.98,2.07.98,2.27.16,3.85-1.99,4.66-6.42l7.49,1.4c-1.64,8.7-5.92,12.73-12.76,12.2-2.76-.22-4.97-1.31-6.67-3.34-1.66-2.03-2.38-4.39-2.16-7.15.33-4.23,2.2-7.5,5.68-9.73,3.17-2.07,6.94-2.93,11.27-2.59,4.42.41,8.08,1.87,10.97,4.38,3.21,2.8,4.59,6.33,4.2,10.61-.46,5.36-2.91,9.4-7.3,12.23Z"/>
  <path class="cls-1" d="M89.03,220.71l1.74-10.96,6.59,1.05,3.59-22.6-13.61-2.16-15.17,32.52-14.46-6.77,11.6-24.92c.13-.24.25-.49.29-.74.3-1.88-.49-2.97-2.38-3.27l-5.65-.9,2.3-14.47,13.18,2.1,7.08-15.29,16.13,7.3-3.39,7.53c-.13.24-.25.49-.28.66-.3,1.88.49,2.97,2.29,3.26l18.92,3.01-7.63,48.02-21.14-3.36Z"/>
  <path class="cls-1" d="M163.72,222.43l-14.65-6.5,9.36-21.15c.17-.26.26-.61.26-.95,0-1.65-.87-2.43-2.51-2.43h-28.25v-13.52h51.39v8.84l-15.6,35.71ZM133.12,169.21v-14.04h42.9v14.04h-42.9Z"/>
  <path class="cls-1" d="M224.7,221.93l-14.73-6.15,11.96-28.6c.17-.43.35-.78.35-1.3,0-.78-.35-1.56-1.04-2.25-.61-.61-1.39-.95-2.25-.95h-27.39v-14.73h50.7v11.53l-17.59,42.47Z"/>
  <path class="cls-1" d="M273.5,221.52l-15.39,2.04-3.84-32.97,15.41-1.95,3.83,32.88ZM287.73,224.15l-10.44-55.86,16.41-3.07,6.27,33.54c.18.99.78,1.71,1.62,2.2.92.48,1.78.59,2.73.23l14.53-5.69,5.69,14.53-36.8,14.12Z"/>
  <path class="cls-1" d="M98.97,262.25c-.78,0-1.43.26-2.02.78-.59.52-.91,1.17-.98,1.95l-1.5,16.09-12.83-1.17,1.5-16.55h-16.7v-10.36h42.82v9.25h-10.29ZM106.07,245.51l-33.03.07.13-9.64,32.9-.2v9.77Z"/>
  <path class="cls-1" d="M131.74,264.36c-.88.82-1.32,1.77-1.32,2.97v19.43h-9.71v-15.2l-6.88,5.11-4.79-6.43,22.21-16.4,5.17,6.81-4.67,3.72Z"/>
  <path class="cls-1" d="M175.38,270.6h-31.64v-10.79l31.69.06-.05,10.72Z"/>
  <path class="cls-1" d="M209.74,286.69l-10.85-4.23,9.65-24.85c.06-.19.13-.44.13-.69,0-1.14-.63-1.77-1.83-1.77h-10.85l-3.97,8.2-9.65-4.61,12.18-25.61,10.72,5.05-2.21,4.73c-.13.19-.19.44-.19.63,0,1.2.57,1.77,1.77,1.77h18.42v7.25l-13.31,34.13ZM200.1,270.14c-.91.83-1.97,1.29-3.11,1.29-1.21,0-2.27-.45-3.18-1.29-.83-.91-1.29-1.89-1.29-3.18,0-1.14.45-2.2,1.29-3.11.91-.83,1.97-1.29,3.18-1.29,1.14,0,2.2.45,3.11,1.29.91.91,1.29,1.97,1.29,3.11,0,1.29-.38,2.27-1.29,3.18Z"/>
  <path class="cls-1" d="M255.29,259.46c-1.45,1.07-2.21,2.52-2.21,4.29v25.42h-11.92v-20.75l-9.46,7.07-5.87-7.82,28.7-21.32,6.56,8.58-5.8,4.54Z"/>
  <path class="cls-1" d="M267.17,275.93l5.68-36.34,11.92,1.83-3.6,22.02c-.06.69.13,1.26.57,1.83.44.5,1.01.82,1.7.82h12.3v-12.05h10.66v25.3h-10.66v-3.41h-28.58Z"/>
</svg>